<svg width="44" height="42" fill="none" xmlns="http://www.w3.org/2000/svg"><path fill-rule="evenodd" clip-rule="evenodd" d="M41.32 15.931c.716 0 1.38.357 1.774.956a2.12 2.12 0 01.18 2.008l-4.94 13.685c-.275 1.055-1.162 1.864-2.243 2.101l.64 6.595h-3.28l-1.447-6.517H11.44l-1.448 6.517h-3.28l.64-6.595A3.002 3.002 0 015.09 32.52L.154 18.232a2.201 2.201 0 01.228-2.042 2.22 2.22 0 011.845-.983h2.134C4.741 6.757 11.732 0 20.274 0h2.896c8.785 0 15.931 7.147 15.931 15.931h2.219zM23.17 1.448h-2.896c-7.743 0-14.087 6.108-14.465 13.758h.221c.456 0 1.138.183 1.79 1.055l.093.123 1.697 7.53c.933-1.336 2.478-2.19 4.148-2.19h15.93a5.06 5.06 0 014.274 2.374.908.908 0 01.019-.054c.009-.026.018-.05.024-.077l1.432-6.078c.036-.139.084-.272.14-.4l.04-.077.01-.018a2.624 2.624 0 01.148-.27c.02-.03.042-.059.064-.087a2.25 2.25 0 00.033-.044l.003-.003a1.616 1.616 0 01.242-.283l.028-.028a2.8 2.8 0 01.174-.159c.04-.032.08-.062.121-.091l.018-.013a2.604 2.604 0 01.559-.303l.01-.003c.051-.02.102-.04.156-.056.075-.023.152-.042.23-.059a2.643 2.643 0 01.201-.04.393.393 0 01.04-.007v-.017c0-7.986-6.498-14.483-14.484-14.483zM11.779 26.023a.146.146 0 01-.016-.005 2.705 2.705 0 01-1.314-.664c.57-1.302 1.878-2.182 3.308-2.182h15.931a3.63 3.63 0 013.364 2.297c-.481.385-1.083.6-1.702.6H12.276c-.168 0-.335-.016-.498-.046zM8.31 39.828h.522l1.127-5.07H8.802l-.493 5.07zm26.304 0l-1.126-5.07h1.155l.493 5.07h-.522zm2.34-7.678l4.974-13.786c.107-.253.086-.486-.04-.678a.667.667 0 00-.566-.305H37.96c-.524 0-.984.354-1.117.86l-1.427 6.06a4.166 4.166 0 01-.738 1.549l.009.033-.198.213a2.6 2.6 0 01-.151.155l-.057.055a3.755 3.755 0 01-.717.569 4.22 4.22 0 01-.672.342l-.033.013c-.066.026-.131.052-.2.074a4.077 4.077 0 01-.687.163 4.028 4.028 0 01-.62.052H12.276a4.15 4.15 0 01-.624-.052 4.056 4.056 0 01-.67-.158 3.981 3.981 0 01-.328-.127l-.004-.002c-.075-.032-.148-.063-.22-.1a4.115 4.115 0 01-1.426-1.156l-.198-.241.005-.015a4.193 4.193 0 01-.61-1.406L6.57 17.017c-.196-.232-.39-.361-.54-.361H2.227a.763.763 0 00-.643.342.762.762 0 00-.076.725L6.476 32.1c.195.735.814 1.212 1.52 1.212h27.451c.707 0 1.326-.477 1.506-1.16zM16.677 11.08a.624.624 0 11.882.883l-1.176 1.176-.883-.882 1.177-1.176zm-2.06 2.06l.883-.883-1.176-1.176a.624.624 0 10-.883.882l1.177 1.176zm.883.882l.883-.883 1.176 1.177a.624.624 0 01-.882.882L15.5 14.022zm0 0l-.882-.883-1.177 1.177a.624.624 0 00.883.882l1.176-1.176zm14.06-2.941a.624.624 0 00-.883 0L27.5 12.257l-1.176-1.176a.624.624 0 10-.883.882l1.177 1.176-1.177 1.177a.624.624 0 00.883.882l1.176-1.176 1.177 1.176a.624.624 0 10.882-.882l-1.176-1.177 1.176-1.176a.624.624 0 000-.882zm-1.177 2.058l-.883-.882-.882.882.882.883.883-.883z" fill="#D6C7A7"/></svg>