<svg width="38" height="40" fill="none" xmlns="http://www.w3.org/2000/svg"><path fill-rule="evenodd" clip-rule="evenodd" d="M11.729 25.549l3.257 1.357a3.231 3.231 0 011.994 2.991v9.406a.615.615 0 01-1.23 0v-9.406c0-.814-.486-1.542-1.237-1.855l-6.26-2.608a.613.613 0 01-.289-.25l-3.381-3.432a.704.704 0 00-.986-.008.704.704 0 00-.008.986l3.483 3.536a.62.62 0 01.034.826.621.621 0 01-.91.037l-3.483-3.535a1.915 1.915 0 01-.554-1.367c.003-.462.168-.897.466-1.242V16.99c0-.387-.297-.716-.663-.733a.704.704 0 00-.732.696v7.07l3.735 5.602 5.744 2.553a.614.614 0 01.365.562v6.562a.615.615 0 01-1.23 0V33.14l-5.541-2.463a.615.615 0 01-.262-.22L.103 24.55A.615.615 0 010 24.21v-7.256c0-.524.218-1.033.597-1.395a1.91 1.91 0 012.028-.4v-.793a1.93 1.93 0 011.928-1.928 1.93 1.93 0 011.927 1.928v.828a1.93 1.93 0 012.625 1.797v1.485a1.93 1.93 0 012.625 1.797v5.267l-.001.009zm-6.48-4.845zm0 0a1.913 1.913 0 00-1.394-.377v-5.96a.698.698 0 011.395 0v6.337zm2.626 2.636v-6.35a.698.698 0 00-1.395 0v4.88a.63.63 0 01-.002.05l1.397 1.419zm2.625 1.697zm0 0v-4.765a.698.698 0 00-1.395 0v4.184l1.395.58zm25.46-10.008a1.91 1.91 0 011.423.53c.38.362.597.87.597 1.395v7.256c0 .121-.036.24-.103.34l-3.938 5.907a.616.616 0 01-.262.22l-5.54 2.464v6.162a.615.615 0 11-1.231 0v-6.562c0-.243.143-.464.365-.563l5.743-2.552 3.736-5.603v-7.07a.704.704 0 00-.732-.695c-.366.017-.663.346-.663.733v3.993c.298.346.463.78.466 1.242.004.515-.193 1-.554 1.368l-3.483 3.535a.621.621 0 01-.91-.038.62.62 0 01.034-.826l3.483-3.535a.704.704 0 00-.008-.986.704.704 0 00-.986.008l-3.381 3.432a.611.611 0 01-.29.25l-6.259 2.608a2.004 2.004 0 00-1.237 1.855v9.406a.615.615 0 11-1.23 0v-9.406a3.23 3.23 0 011.994-2.99l3.257-1.358v-.01l-.001-.017v-5.25a1.93 1.93 0 012.625-1.796V16.99a1.93 1.93 0 012.625-1.797v-.828a1.93 1.93 0 011.927-1.928 1.93 1.93 0 011.928 1.928v.792a1.89 1.89 0 01.605-.13zm-8.48 10.008l1.395-.581v-4.184a.698.698 0 00-1.395 0v4.765zm2.625-1.697v-6.35a.698.698 0 011.395 0v4.88c0 .018 0 .034.002.05l-1.397 1.419zm4.02-3.013zm0 0v-5.961a.698.698 0 00-1.395 0v6.338a1.913 1.913 0 011.395-.377zM27.358.836c1.236.828 2.113 2.177 2.47 3.798.367 1.669.128 3.455-.675 5.031-1.594 3.13-4.224 5.222-6.15 6.425-2.08 1.3-3.772 1.86-3.843 1.884a.53.53 0 01-.328 0c-.071-.023-1.762-.584-3.843-1.884-1.926-1.203-4.556-3.295-6.15-6.425-.803-1.576-1.042-3.362-.675-5.03.357-1.622 1.234-2.971 2.47-3.799C11.81.05 13.198-.188 14.648.148c1.467.34 2.929 1.242 4.35 2.686 1.42-1.444 2.88-2.347 4.348-2.686 1.45-.336 2.838-.097 4.013.688zm-4.875 14.422c1.814-1.137 4.288-3.108 5.777-6.032.7-1.375.91-2.93.59-4.38-.297-1.351-1.043-2.512-2.048-3.185-.93-.624-2.038-.81-3.202-.541-1.396.323-2.815 1.263-4.217 2.794a.532.532 0 01-.774 0c-1.402-1.53-2.821-2.471-4.217-2.794A4.515 4.515 0 0013.373 1c-.787 0-1.529.223-2.183.661-1.005.673-1.751 1.834-2.049 3.185-.318 1.45-.108 3.005.591 4.38 2.609 5.125 8.23 7.393 9.264 7.774a19.555 19.555 0 003.487-1.742z" fill="#D6C7A7"/></svg>