<svg width="215" height="35" fill="none" xmlns="http://www.w3.org/2000/svg"><path d="M.54 31.54c.09-.33.45-.96 1.08-1.89a59.31 59.31 0 012.384-3.33c.96-1.29 2.025-2.685 3.195-4.185 1.17-1.5 2.325-2.955 3.465-4.365 1.14-1.44 2.205-2.775 3.195-4.005 1.02-1.23 1.845-2.22 2.475-2.97.63-.21 1.125-.36 1.485-.45.36-.12.645-.225.855-.315.18.06.21.15.09.27-.36.24-.585.585-.675 1.035-.12.69-.24 1.515-.36 2.475-.12.96-.24 1.98-.36 3.06-.09 1.08-.18 2.19-.27 3.33-.09 1.14-.165 2.22-.225 3.24s-.105 1.965-.135 2.835c-.03.84-.045 1.515-.045 2.025 0 .3.015.51.045.63.06.09.12.135.18.135.09-.03.18-.09.27-.18l.27-.36c.33-.42.87-1.08 1.62-1.98.75-.93 1.605-1.965 2.565-3.105a240.243 240.243 0 016.165-7.2c.99-1.14 1.875-2.145 2.655-3.015.81-.9 1.41-1.53 1.8-1.89.48-.24 1.065-.465 1.755-.675.69-.21 1.245-.45 1.665-.72.09 0 .165.045.225.135.06.06.06.135 0 .225-.51.21-.885.39-1.125.54-.21.15-.39.435-.54.855A74.975 74.975 0 0033.12 15.7c-.36 1.5-.705 3.045-1.035 4.635-.3 1.59-.555 3.15-.765 4.68-.21 1.5-.315 2.82-.315 3.96 0 .42.09.72.27.9.21.15.45.225.72.225.27 0 .57-.03.9-.09.33-.06.63-.15.9-.27.06 0 .09.045.09.135.03.06.015.12-.045.18-.3.09-.66.195-1.08.315-.39.12-.795.24-1.215.36-.39.12-.765.225-1.125.315-.33.12-.615.21-.855.27-.36 0-.66-.075-.9-.225-.21-.12-.345-.36-.405-.72.03-.42.135-1.11.315-2.07.18-.96.405-2.04.675-3.24.27-1.2.555-2.46.855-3.78.33-1.32.63-2.535.9-3.645.27-1.14.495-2.1.675-2.88.21-.78.33-1.245.36-1.395.12-.45.12-.66 0-.63-.12 0-.3.105-.54.315-.57.51-1.245 1.17-2.025 1.98-.75.78-1.56 1.65-2.43 2.61-.84.96-1.71 1.98-2.61 3.06-.9 1.08-1.785 2.16-2.655 3.24-.87 1.08-1.695 2.145-2.475 3.195a72.003 72.003 0 00-2.07 2.835l-.225.45c-.09.15-.165.33-.225.54-.57.03-1.005.105-1.305.225-.27.15-.555.36-.855.63-.18.06-.285.03-.315-.09.09-.63.18-1.47.27-2.52.12-1.05.225-2.205.315-3.465.12-1.26.225-2.55.315-3.87.09-1.35.18-2.61.27-3.78.09-1.2.165-2.25.225-3.15.06-.9.105-1.545.135-1.935 0-.57-.24-.57-.72 0-.87.99-1.905 2.235-3.105 3.735-1.17 1.5-2.355 3.06-3.555 4.68-1.2 1.62-2.34 3.21-3.42 4.77-1.05 1.56-1.89 2.91-2.52 4.05-.54.99-.87 1.74-.99 2.25-.09.51-.12.93-.09 1.26.03.33 0 .465-.09.405-.09-.03-.18-.135-.27-.315-.09-.18-.165-.45-.225-.81A23.53 23.53 0 00.54 31.54zm51.198-6.705a43.01 43.01 0 01-2.295 2.565 29.14 29.14 0 01-2.475 2.295c-.84.69-1.68 1.245-2.52 1.665-.81.42-1.56.63-2.25.63-.6 0-1.02-.15-1.26-.45-.24-.3-.36-.675-.36-1.125 0-.42.12-.975.36-1.665.27-.72.66-1.485 1.17-2.295-.39.51-.84 1.05-1.35 1.62-.51.57-1.035 1.095-1.575 1.575-.54.45-1.08.84-1.62 1.17-.54.3-1.02.45-1.44.45-.63 0-.945-.315-.945-.945 0-.69.27-1.56.81-2.61.54-1.05 1.26-2.055 2.16-3.015.93-.99 1.98-1.83 3.15-2.52 1.17-.72 2.385-1.08 3.645-1.08.15-.3.285-.51.405-.63.12-.12.24-.21.36-.27l1.26-.36.09.045c-.15.15-.3.345-.45.585-.12.21-.255.435-.405.675.15 0 .375.015.675.045.3.03.525.06.675.09.15.06.225.135.225.225s-.045.135-.135.135c-.18-.06-.45-.105-.81-.135-.36-.03-.63-.045-.81-.045-1.38 2.43-2.4 4.365-3.06 5.805-.63 1.41-.945 2.46-.945 3.15 0 .27.06.495.18.675.15.18.435.27.855.27.48 0 1.05-.165 1.71-.495.66-.36 1.365-.84 2.115-1.44.75-.63 1.515-1.35 2.295-2.16.81-.81 1.575-1.665 2.295-2.565.06-.09.12-.105.18-.045.06.03.09.09.09.18zm-7.02-3.42c-1.02 0-1.995.36-2.925 1.08a12.57 12.57 0 00-2.475 2.565c-.72.96-1.305 1.92-1.755 2.88-.42.96-.63 1.665-.63 2.115 0 .24.09.36.27.36.18 0 .45-.12.81-.36.39-.24.825-.555 1.305-.945.48-.42.96-.9 1.44-1.44.51-.54.975-1.125 1.395-1.755.48-.72.945-1.485 1.395-2.295.45-.81.855-1.53 1.215-2.16l-.045-.045z" fill="#fff"/><path d="M58.349 14.845c0 .3-.135.615-.405.945-.24.33-.57.495-.99.495-.15 0-.3-.045-.45-.135a.56.56 0 01-.18-.405c0-.21.105-.51.315-.9.24-.42.615-.63 1.125-.63.12 0 .24.045.36.135.15.09.225.255.225.495zm5.895 4.41c0 .12-.015.285-.045.495-.03.18-.12.435-.27.765-.12.3-.345.69-.675 1.17-.3.48-.72 1.08-1.26 1.8.03.48.06.9.09 1.26.06.36.09.84.09 1.44 0 .48-.075 1.05-.225 1.71-.12.66-.36 1.29-.72 1.89-.36.57-.87 1.05-1.53 1.44-.63.42-1.47.63-2.52.63-.69 0-1.23-.21-1.62-.63-.39-.42-.645-.84-.765-1.26-.6.36-1.29.675-2.07.945-.75.27-1.605.405-2.565.405-.42 0-.75-.105-.99-.315-.24-.18-.36-.465-.36-.855 0-.72.435-1.845 1.305-3.375.9-1.53 2.01-3.285 3.33-5.265.06-.12.255-.21.585-.27.33-.09.585-.135.765-.135.18 0 .27.06.27.18s-.09.33-.27.63c-.18.27-.495.75-.945 1.44-.39.6-.795 1.245-1.215 1.935-.39.66-.75 1.29-1.08 1.89-.3.6-.555 1.14-.765 1.62-.18.45-.27.795-.27 1.035 0 .27.06.495.18.675.12.18.375.27.765.27.48 0 .99-.075 1.53-.225.54-.18 1.11-.48 1.71-.9a3.728 3.728 0 01-.045-.675c0-.45.105-.915.315-1.395.39-.6.855-1.215 1.395-1.845.57-.66 1.05-1.2 1.44-1.62.03-.03.075-.045.135-.045.06 0 .105.015.135.045.06 0 .09.03.09.09s-.06.135-.18.225c-.72.63-1.275 1.305-1.665 2.025-.36.69-.54 1.515-.54 2.475.3-.21.66-.495 1.08-.855.45-.39.9-.795 1.35-1.215.48-.42.93-.84 1.35-1.26.45-.42.81-.78 1.08-1.08v-.54c0-.72.075-1.41.225-2.07.15-.69.345-1.275.585-1.755.27-.51.585-.915.945-1.215.36-.3.75-.45 1.17-.45.45 0 .675.255.675.765zm-.72.585c0-.57-.165-.855-.495-.855-.27 0-.48.12-.63.36-.15.21-.27.48-.36.81-.09.3-.15.615-.18.945v1.395c.03.24.06.45.09.63.6-.78 1.005-1.41 1.215-1.89.24-.48.36-.945.36-1.395zm-2.835 6.525c0-.24-.015-.465-.045-.675v-.72c-.72.72-1.5 1.47-2.34 2.25-.81.78-1.65 1.5-2.52 2.16.12.69.36 1.215.72 1.575.39.36.84.54 1.35.54.36 0 .705-.075 1.035-.225.36-.15.66-.42.9-.81.27-.39.48-.915.63-1.575.18-.66.27-1.5.27-2.52zM80.44 23.35c-.51.69-1.14 1.32-1.89 1.89-.72.54-1.544.81-2.474.81-.51 0-1.02-.12-1.53-.36-.48-.27-.87-.66-1.17-1.17-.21.48-.48 1.035-.81 1.665-.33.6-.72 1.215-1.17 1.845-.45.6-.96 1.155-1.53 1.665a7.89 7.89 0 01-1.755 1.26c-.54.24-.99.36-1.35.36-1.08 0-1.62-.48-1.62-1.44 0-.54.09-1.095.27-1.665.21-.57.465-1.125.764-1.665.3-.54.615-1.05.946-1.53.36-.48.69-.87.99-1.17a9.39 9.39 0 012.16-1.755 6.24 6.24 0 012.61-.855c.06-.24.15-.51.27-.81.12-.33.33-.525.63-.585l.45-.09c.15-.03.285-.075.404-.135.09-.06.18-.06.27 0 .09.03.105.105.046.225-.21.33-.375.75-.495 1.26a9.596 9.596 0 00-.136 1.665c0 .84.15 1.53.45 2.07.33.54.886.81 1.666.81.78 0 1.484-.255 2.114-.765a8.201 8.201 0 001.576-1.665c.06-.15.15-.195.27-.135.15.06.165.15.044.27zm-7.424.315a7.136 7.136 0 01-.136-.945c-.03-.36-.044-.705-.044-1.035 0-.15-.06-.225-.18-.225-.33 0-.675.12-1.035.36-.36.21-.72.51-1.08.9-.36.36-.72.78-1.08 1.26-.36.48-.69.975-.99 1.485-.39.66-.75 1.38-1.08 2.16-.3.75-.436 1.47-.406 2.16 0 .21.03.405.09.585.09.18.27.27.54.27.51 0 1.066-.285 1.666-.855.6-.57 1.17-1.23 1.71-1.98.54-.78.99-1.56 1.35-2.34.39-.78.615-1.38.675-1.8z" fill="#fff"/><path d="M91.184 25.195c-.54.75-1.17 1.515-1.89 2.295-.69.75-1.44 1.425-2.25 2.025-.78.6-1.59 1.095-2.43 1.485-.81.39-1.605.585-2.385.585-.36 0-.69-.06-.99-.18-.3-.09-.45-.345-.45-.765 0-.42.15-.945.45-1.575.3-.66.645-1.35 1.035-2.07.42-.72.84-1.455 1.26-2.205.45-.75.81-1.44 1.08-2.07.06-.15.06-.27 0-.36-.03-.12-.12-.135-.27-.045-.33.21-.72.495-1.17.855-.45.36-.915.75-1.395 1.17-.45.39-.9.795-1.35 1.215-.42.42-.765.795-1.035 1.125-.48.75-.9 1.44-1.26 2.07-.33.63-.75 1.335-1.26 2.115-.12.18-.21.27-.27.27-.15 0-.285-.165-.405-.495-.09-.33-.135-.54-.135-.63 0-.27.18-.63.54-1.08.39-.48.81-1.005 1.26-1.575.48-.96.975-1.965 1.485-3.015.51-1.08.945-2.04 1.305-2.88a.442.442 0 01.405-.225c.18 0 .345.075.495.225.15.15.225.315.225.495 0 .12-.225.54-.675 1.26-.42.69-.84 1.5-1.26 2.43.57-.51 1.185-1.05 1.845-1.62.69-.57 1.335-1.095 1.935-1.575.63-.48 1.17-.87 1.62-1.17.48-.33.81-.495.99-.495.12 0 .225.075.315.225.12.12.18.24.18.36s-.075.3-.225.54c-.33.48-.735 1.095-1.215 1.845-.48.75-.945 1.53-1.395 2.34-.42.78-.78 1.53-1.08 2.25-.3.72-.45 1.29-.45 1.71 0 .36.075.615.225.765.15.12.39.18.72.18.51 0 1.11-.195 1.8-.585.69-.39 1.395-.87 2.115-1.44.75-.6 1.455-1.26 2.115-1.98.66-.72 1.2-1.41 1.62-2.07.06-.09.15-.105.27-.045.12.03.105.135-.045.315zm35.705-24.12c0 .18-.09.36-.27.54-.18.18-.3.435-.36.765-.06.21-.165.315-.315.315a.85.85 0 01-.27-.045c-.09-.06-.21-.12-.36-.18a1.655 1.655 0 00-.495-.135c-.18-.06-.45-.09-.81-.09-.51 0-1.02.075-1.53.225-.51.12-.975.315-1.395.585-.84.54-1.755 1.305-2.745 2.295a25.46 25.46 0 00-2.655 3.24c-2.01 2.88-3.78 5.58-5.31 8.1-1.5 2.49-2.76 4.725-3.78 6.705-1.02 1.98-1.785 3.675-2.295 5.085-.51 1.38-.765 2.4-.765 3.06 0 .51.105.93.315 1.26.24.33.615.495 1.125.495.81 0 1.575-.255 2.295-.765.75-.51 1.455-1.14 2.115-1.89.66-.78 1.26-1.635 1.8-2.565.54-.93 1.005-1.8 1.395-2.61.06-.12.15-.165.27-.135.15.03.15.15 0 .36a34.598 34.598 0 01-1.755 3.105c-.6.96-1.245 1.8-1.935 2.52-.66.75-1.365 1.335-2.115 1.755-.72.42-1.44.63-2.16.63-.81 0-1.41-.225-1.8-.675-.39-.42-.585-.975-.585-1.665 0-.72.135-1.485.405-2.295.3-.84.75-1.86 1.35-3.06a67.762 67.762 0 01-2.205 2.565c-.63.69-1.185 1.23-1.665 1.62-.48.39-.9.66-1.26.81-.33.18-.63.27-.9.27-.42 0-.705-.105-.855-.315-.15-.24-.225-.54-.225-.9 0-.27.075-.615.225-1.035.15-.45.36-.885.63-1.305 1.11-1.8 2.34-3.27 3.69-4.41 1.38-1.14 3.075-1.89 5.085-2.25 1.44-2.52 2.82-4.785 4.14-6.795a72.193 72.193 0 014.32-5.895c1.29-1.62 2.565-3.045 3.825-4.275 1.29-1.23 2.61-2.16 3.96-2.79 1.02-.48 1.905-.72 2.655-.72.36 0 .645.045.855.135.24.09.36.21.36.36zM106.414 21.73c-1.14.03-2.025.255-2.655.675-.6.39-1.14.885-1.62 1.485-1.14 1.41-1.95 2.625-2.43 3.645-.48.99-.72 1.725-.72 2.205 0 .15.06.255.18.315s.21.09.27.09c.21 0 .585-.225 1.125-.675.57-.45 1.185-1.05 1.845-1.8.69-.78 1.395-1.68 2.115-2.7.72-1.02 1.35-2.1 1.89-3.24z" fill="#fff"/><path d="M131.472 27.445c-.96 1.14-1.98 1.965-3.06 2.475-1.05.48-1.935.81-2.655.99-1.05.24-2.1.405-3.15.495-1.05.09-2.04.135-2.97.135-.87 0-1.305-.105-1.305-.315 0-.06.12-.195.36-.405.24-.21.51-.345.81-.405.3 0 .63.015.99.045s.735.045 1.125.045c.27 0 .555-.045.855-.135.33-.09.63-.255.9-.495s.48-.57.63-.99c.18-.42.27-.96.27-1.62 0-.33-.015-.675-.045-1.035a3.982 3.982 0 00-.225-1.035c-1.74 1.98-3.585 3.495-5.535 4.545-1.95 1.02-3.735 1.53-5.355 1.53-.24 0-.51-.015-.81-.045-.27-.03-.54-.105-.81-.225-.24-.15-.45-.345-.63-.585-.15-.24-.225-.57-.225-.99 0-.51.21-1.23.63-2.16.42-.93.99-1.845 1.71-2.745a11.64 11.64 0 012.475-2.385c.93-.69 1.905-1.035 2.925-1.035.3 0 .51.105.63.315.12.18.18.405.18.675 0 .18-.06.42-.18.72-.09.3-.27.6-.54.9-.27.27-.615.525-1.035.765-.42.21-.945.315-1.575.315-.6 0-1.05-.165-1.35-.495-.06-.06-.135-.045-.225.045-.12.12-.285.345-.495.675-.21.33-.42.72-.63 1.17-.21.45-.39.93-.54 1.44a4.95 4.95 0 00-.225 1.485c0 1.08.495 1.62 1.485 1.62.33 0 .81-.045 1.44-.135.66-.12 1.41-.375 2.25-.765.87-.42 1.83-1.02 2.88-1.8 1.05-.78 2.13-1.83 3.24-3.15.15-.21.225-.375.225-.495 0-.48.15-.945.45-1.395.3-.45.66-.855 1.08-1.215.45-.36.9-.645 1.35-.855.48-.21.9-.315 1.26-.315.18 0 .345.06.495.18.18.12.27.3.27.54 0 .18-.015.315-.045.405l-.315.315c-.12.12-.225.18-.315.18-.06 0-.15-.135-.27-.405-.12-.27-.345-.405-.675-.405-.6 0-1.05.18-1.35.54-.3.36-.45.84-.45 1.44 0 .42.06.96.18 1.62.12.66.18 1.29.18 1.89 0 .6-.21 1.215-.63 1.845-.42.63-.93 1.08-1.53 1.35-.24.12-.345.225-.315.315.03.06.345.09.945.09 1.17 0 2.385-.27 3.645-.81 1.26-.54 2.4-1.365 3.42-2.475.15-.15.255-.18.315-.09.06.06.015.165-.135.315zm-13.95-4.95c0-.12-.03-.27-.09-.45-.03-.18-.18-.27-.45-.27-.18 0-.39.075-.63.225-.24.15-.48.345-.72.585-.24.21-.45.435-.63.675-.15.24-.255.45-.315.63 0 .3.24.45.72.45.42 0 .87-.15 1.35-.45.51-.33.765-.795.765-1.395zm35.985-11.52a41 41 0 013.555.135c1.05.06 1.905.225 2.565.495.69.27 1.2.645 1.53 1.125.36.48.54 1.125.54 1.935 0 .42-.105.915-.315 1.485-.21.57-.57 1.14-1.08 1.71-.48.54-1.125 1.065-1.935 1.575-.81.48-1.8.855-2.97 1.125-.06 0-.09.045-.09.135 0 .06.03.09.09.09.42.09.885.195 1.395.315.51.09.99.27 1.44.54.45.24.825.57 1.125.99.33.39.495.93.495 1.62 0 .84-.225 1.695-.675 2.565-.45.84-1.095 1.605-1.935 2.295-.81.69-1.815 1.26-3.015 1.71-1.17.42-2.505.63-4.005.63-.87 0-1.8-.09-2.79-.27a9.166 9.166 0 01-2.745-.855c-.21-.12-.405-.21-.585-.27-.18-.09-.33-.135-.45-.135-.24 0-.615.12-1.125.36s-.975.525-1.395.855l-.27-.225c.39-.42.645-.72.765-.9.15-.21.27-.39.36-.54.48-.81.975-1.65 1.485-2.52.51-.9.99-1.77 1.44-2.61.48-.87.93-1.695 1.35-2.475.45-.81.855-1.53 1.215-2.16.27-.54.585-1.14.945-1.8.39-.69.765-1.395 1.125-2.115.39-.72.75-1.425 1.08-2.115.36-.72.675-1.365.945-1.935a.5.5 0 00.045-.225c0-.09-.09-.135-.27-.135-.42 0-.885.03-1.395.09s-1.005.135-1.485.225c-.48.06-.93.12-1.35.18-.42.06-.75.09-.99.09-.48 0-.72-.15-.72-.45 0-.33.09-.585.27-.765.06 0 .105.045.135.135.06.09.18.15.36.18.21.03.69.045 1.44.045.96 0 1.86-.015 2.7-.045.87-.06 1.935-.09 3.195-.09zm6.03 3.285c0-.57-.12-1.035-.36-1.395-.24-.39-.555-.69-.945-.9a3.692 3.692 0 00-1.305-.405c-.48-.09-.96-.135-1.44-.135-.33 0-.645.045-.945.135-.27.06-.51.225-.72.495-.33.42-.675.93-1.035 1.53-.33.57-.645 1.11-.945 1.62-.99 1.77-2.055 3.75-3.195 5.94-1.14 2.19-2.28 4.41-3.42 6.66-.15.3-.24.57-.27.81 0 .18.075.405.225.675.15.27.39.54.72.81.36.24.81.45 1.35.63s1.215.27 2.025.27a9.598 9.598 0 003.015-.585c1.02-.39 1.935-.9 2.745-1.53a7.82 7.82 0 001.935-2.295c.51-.9.765-1.86.765-2.88 0-.87-.33-1.53-.99-1.98-.66-.48-1.59-.75-2.79-.81-.42 0-.885.06-1.395.18-.51.09-.96.135-1.35.135-.09-.03-.165-.06-.225-.09-.03-.06-.045-.18-.045-.36 0-.15.045-.27.135-.36.09-.12.21-.18.36-.18.33 0 .645.045.945.135.3.09.615.135.945.135.27 0 .57-.015.9-.045.36-.06.66-.135.9-.225.54-.24 1.065-.54 1.575-.9.54-.39 1.02-.84 1.44-1.35.42-.51.75-1.08.99-1.71.27-.63.405-1.305.405-2.025zm18.264 10.575a43.01 43.01 0 01-2.295 2.565 29.14 29.14 0 01-2.475 2.295c-.84.69-1.68 1.245-2.52 1.665-.81.42-1.56.63-2.25.63-.6 0-1.02-.15-1.26-.45-.24-.3-.36-.675-.36-1.125 0-.42.12-.975.36-1.665.27-.72.66-1.485 1.17-2.295-.39.51-.84 1.05-1.35 1.62-.51.57-1.035 1.095-1.575 1.575-.54.45-1.08.84-1.62 1.17-.54.3-1.02.45-1.44.45-.63 0-.945-.315-.945-.945 0-.69.27-1.56.81-2.61.54-1.05 1.26-2.055 2.16-3.015.93-.99 1.98-1.83 3.15-2.52 1.17-.72 2.385-1.08 3.645-1.08.15-.3.285-.51.405-.63.12-.12.24-.21.36-.27l1.26-.36.09.045c-.15.15-.3.345-.45.585-.12.21-.255.435-.405.675.15 0 .375.015.675.045.3.03.525.06.675.09.15.06.225.135.225.225s-.045.135-.135.135c-.18-.06-.45-.105-.81-.135-.36-.03-.63-.045-.81-.045-1.38 2.43-2.4 4.365-3.06 5.805-.63 1.41-.945 2.46-.945 3.15 0 .27.06.495.18.675.15.18.435.27.855.27.48 0 1.05-.165 1.71-.495.66-.36 1.365-.84 2.115-1.44.75-.63 1.515-1.35 2.295-2.16.81-.81 1.575-1.665 2.295-2.565.06-.09.12-.105.18-.045.06.03.09.09.09.18zm-7.02-3.42c-1.02 0-1.995.36-2.925 1.08a12.57 12.57 0 00-2.475 2.565c-.72.96-1.305 1.92-1.755 2.88-.42.96-.63 1.665-.63 2.115 0 .24.09.36.27.36.18 0 .45-.12.81-.36.39-.24.825-.555 1.305-.945.48-.42.96-.9 1.44-1.44.51-.54.975-1.125 1.395-1.755.48-.72.945-1.485 1.395-2.295.45-.81.855-1.53 1.215-2.16l-.045-.045z" fill="#fff"/><path d="M185.447 21.82c-.18.21-.375.465-.585.765-.18.3-.3.525-.36.675-.03.09-.09.135-.18.135-.03 0-.075-.045-.135-.135-.06-.09-.15-.18-.27-.27a1.12 1.12 0 00-.405-.315c-.18-.09-.435-.135-.765-.135-.39 0-.825.135-1.305.405s-.9.57-1.26.9a10.83 10.83 0 00-1.53 1.575c-.42.57-.825 1.17-1.215 1.8-.39.6-.765 1.23-1.125 1.89-.36.63-.75 1.275-1.17 1.935-.03.09-.12.135-.27.135-.06 0-.195-.09-.405-.27-.18-.18-.27-.315-.27-.405 0-.18.105-.45.315-.81l1.44-2.52c.51-.87.975-1.68 1.395-2.43.45-.75.84-1.395 1.17-1.935.33-.57.555-.99.675-1.26.15-.27.255-.405.315-.405s.21.075.45.225c.24.15.36.36.36.63 0 .09-.06.24-.18.45-.09.21-.21.435-.36.675l-.36.63c-.12.21-.21.36-.27.45-.09.15-.105.225-.045.225s.135-.045.225-.135c.3-.3.66-.63 1.08-.99.45-.36.915-.69 1.395-.99.48-.33.945-.6 1.395-.81.48-.21.9-.315 1.26-.315.27 0 .495.075.675.225.21.12.315.255.315.405zm13.568 1.53c-.51.69-1.14 1.32-1.89 1.89-.72.54-1.545.81-2.475.81-.51 0-1.02-.12-1.53-.36-.48-.27-.87-.66-1.17-1.17-.21.48-.48 1.035-.81 1.665-.33.6-.72 1.215-1.17 1.845-.45.6-.96 1.155-1.53 1.665-.54.51-1.125.93-1.755 1.26-.54.24-.99.36-1.35.36-1.08 0-1.62-.48-1.62-1.44 0-.54.09-1.095.27-1.665.21-.57.465-1.125.765-1.665s.615-1.05.945-1.53c.36-.48.69-.87.99-1.17a9.39 9.39 0 012.16-1.755 6.24 6.24 0 012.61-.855c.06-.24.15-.51.27-.81.12-.33.33-.525.63-.585l.45-.09c.15-.03.285-.075.405-.135.09-.06.18-.06.27 0 .09.03.105.105.045.225-.21.33-.375.75-.495 1.26a9.596 9.596 0 00-.135 1.665c0 .84.15 1.53.45 2.07.33.54.885.81 1.665.81s1.485-.255 2.115-.765a8.201 8.201 0 001.575-1.665c.06-.15.15-.195.27-.135.15.06.165.15.045.27zm-7.425.315a7.136 7.136 0 01-.135-.945c-.03-.36-.045-.705-.045-1.035 0-.15-.06-.225-.18-.225-.33 0-.675.12-1.035.36-.36.21-.72.51-1.08.9-.36.36-.72.78-1.08 1.26-.36.48-.69.975-.99 1.485-.39.66-.75 1.38-1.08 2.16-.3.75-.435 1.47-.405 2.16 0 .21.03.405.09.585.09.18.27.27.54.27.51 0 1.065-.285 1.665-.855.6-.57 1.17-1.23 1.71-1.98.54-.78.99-1.56 1.35-2.34.39-.78.615-1.38.675-1.8z" fill="#fff"/><path d="M209.759 25.195c-.54.75-1.17 1.515-1.89 2.295-.69.75-1.44 1.425-2.25 2.025-.78.6-1.59 1.095-2.43 1.485-.81.39-1.605.585-2.385.585-.36 0-.69-.06-.99-.18-.3-.09-.45-.345-.45-.765 0-.42.15-.945.45-1.575.3-.66.645-1.35 1.035-2.07.42-.72.84-1.455 1.26-2.205.45-.75.81-1.44 1.08-2.07.06-.15.06-.27 0-.36-.03-.12-.12-.135-.27-.045-.33.21-.72.495-1.17.855-.45.36-.915.75-1.395 1.17-.45.39-.9.795-1.35 1.215-.42.42-.765.795-1.035 1.125-.48.75-.9 1.44-1.26 2.07-.33.63-.75 1.335-1.26 2.115-.12.18-.21.27-.27.27-.15 0-.285-.165-.405-.495-.09-.33-.135-.54-.135-.63 0-.27.18-.63.54-1.08.39-.48.81-1.005 1.26-1.575.48-.96.975-1.965 1.485-3.015.51-1.08.945-2.04 1.305-2.88a.442.442 0 01.405-.225c.18 0 .345.075.495.225.15.15.225.315.225.495 0 .12-.225.54-.675 1.26-.42.69-.84 1.5-1.26 2.43.57-.51 1.185-1.05 1.845-1.62.69-.57 1.335-1.095 1.935-1.575.63-.48 1.17-.87 1.62-1.17.48-.33.81-.495.99-.495.12 0 .225.075.315.225.12.12.18.24.18.36s-.075.3-.225.54c-.33.48-.735 1.095-1.215 1.845-.48.75-.945 1.53-1.395 2.34-.42.78-.78 1.53-1.08 2.25-.3.72-.45 1.29-.45 1.71 0 .36.075.615.225.765.15.12.39.18.72.18.51 0 1.11-.195 1.8-.585.69-.39 1.395-.87 2.115-1.44.75-.6 1.455-1.26 2.115-1.98.66-.72 1.2-1.41 1.62-2.07.06-.09.15-.105.27-.045.12.03.105.135-.045.315z" fill="#fff"/><path d="M214.155 22.765c-.09.15-.165.165-.225.045-.18-.39-.555-.585-1.125-.585-.42 0-.84.12-1.26.36-.42.24-.63.6-.63 1.08 0 .24.075.48.225.72.15.24.36.555.63.945.24.36.465.72.675 1.08.21.36.315.735.315 1.125 0 .78-.18 1.425-.54 1.935-.36.48-.795.87-1.305 1.17-.48.3-.975.495-1.485.585-.51.12-.915.18-1.215.18-1.83 0-2.835-.615-3.015-1.845.15-.09.315-.195.495-.315.21-.15.36-.285.45-.405.06 0 .105.06.135.18.15.54.435 1.005.855 1.395.42.39.915.585 1.485.585.24 0 .525-.015.855-.045.33-.06.63-.165.9-.315.3-.18.555-.42.765-.72.21-.3.315-.705.315-1.215 0-.39-.075-.75-.225-1.08-.15-.33-.315-.63-.495-.9l-.54-.9c-.18-.3-.27-.63-.27-.99s.12-.75.36-1.17c.27-.42.6-.795.99-1.125.39-.36.81-.66 1.26-.9.48-.24.945-.36 1.395-.36.48 0 .72.15.72.45-.09.15-.18.33-.27.54-.09.18-.165.345-.225.495z" fill="#fff"/></svg>