<svg width="28" height="42" fill="none" xmlns="http://www.w3.org/2000/svg"><path fill-rule="evenodd" clip-rule="evenodd" d="M0 13.755C0 6.17 6.225 0 13.876 0c7.65 0 13.875 6.17 13.875 13.755 0 7.289-12.61 27.012-13.147 27.848a.866.866 0 01-1.457 0C12.61 40.767 0 21.043 0 13.755zm8.125 15.948c2.293 4.2 4.61 7.991 5.75 9.822a206.708 206.708 0 005.751-9.822c4.185-7.664 6.397-13.179 6.397-15.948 0-6.64-5.45-12.04-12.147-12.04-6.698 0-12.148 5.4-12.148 12.04 0 2.769 2.212 8.284 6.397 15.948z" fill="#D6C7A7"/><path fill-rule="evenodd" clip-rule="evenodd" d="M7.313 12.854c0-3.492 2.944-6.333 6.563-6.333 3.62 0 6.564 2.84 6.564 6.333 0 3.493-2.945 6.334-6.564 6.334s-6.563-2.841-6.563-6.334zm1.728 0c0 2.547 2.169 4.62 4.835 4.62 2.667 0 4.836-2.073 4.836-4.62s-2.17-4.62-4.836-4.62c-2.666 0-4.835 2.073-4.835 4.62z" fill="#D6C7A7"/></svg>