<svg width="28" height="42" fill="none" xmlns="http://www.w3.org/2000/svg"><path fill-rule="evenodd" clip-rule="evenodd" d="M27.795 9.97a.694.694 0 00-.562-.469l-8.771-1.264-3.92-7.884a.725.725 0 00-1.247 0L9.37 8.237.598 9.501a.694.694 0 00-.564.47.686.686 0 00.177.709l6.348 6.136L5.06 25.48a.687.687 0 00.278.674.7.7 0 00.733.052l4.706-2.455 2.449 17.027c.049.34.342.593.689.593.346 0 .64-.253.688-.593l2.45-17.025 4.706 2.453a.698.698 0 00.856-.166.686.686 0 00.154-.562l-1.498-8.663 6.348-6.135a.686.686 0 00.175-.71zm-13.88 25.827l-1.829-12.721 1.83-.958 1.83.958-1.83 12.721zm5.923-19.105a.686.686 0 01.2-.611l5.6-5.415L17.9 9.55a.695.695 0 01-.523-.377l-3.461-6.955-3.461 6.955a.695.695 0 01-.524.377l-7.738 1.116 5.6 5.415a.687.687 0 01.2.611L6.67 24.336l6.92-3.608a.7.7 0 01.65 0l6.92 3.608-1.322-7.644z" fill="#D6C7A7"/><path fill-rule="evenodd" clip-rule="evenodd" d="M9.742 14.46c0-2.288 1.869-4.141 4.174-4.141 2.304.002 4.171 1.855 4.174 4.14 0 2.287-1.869 4.14-4.174 4.14-2.305 0-4.174-1.853-4.174-4.14zm1.391 0c0 1.523 1.246 2.76 2.783 2.76s2.783-1.236 2.783-2.76c0-1.525-1.246-2.761-2.783-2.761s-2.783 1.236-2.783 2.76z" fill="#D6C7A7"/></svg>